<svg xmlns="http://www.w3.org/2000/svg" fill="none" height="479" viewBox="0 0 503 479" width="503"><path d="m378.319 44.7327c0-24.6858-20.047-44.7327-44.734-44.7327-24.686 0-44.733 20.0469-44.733 44.7327 0 6.7927 1.491 13.254 4.224 18.9699l39.267 80.3534 42.496-81.4302h-.248c2.402-5.4674 3.728-11.5146 3.728-17.8931zm-43.988 17.8931c-9.444 0-17.148-7.7041-17.148-17.1476 0-9.4436 7.704-17.1474 17.148-17.1474 9.443 0 17.148 7.7038 17.148 17.1474 0 9.4435-7.705 17.1476-17.148 17.1476z" fill="#ffa400"></path><path d="m174.468 44.1521c-6.544-11.8458-2.32-26.7566 9.526-33.3008 11.847-6.54422 26.758-2.31952 33.302 9.5263l114.485 204.7764c7.456 13.336-8.201-12.923.58.662l123.846-205.6041c6.71-11.76299 21.621-15.90491 33.384-9.195 11.763 6.7099 15.905 21.6207 9.195 33.3837l-141.159 247.9344c-2.071 4.473-5.55 8.367-10.189 10.935-11.846 6.627-26.84 2.402-33.385-9.444l-82.674-148.031-9.527-16.982-47.301-84.5779z" fill="#3d4543" stroke="#3d4543" stroke-miterlimit="10" stroke-width="1.89"></path><path d="m2 7.78505c51.5264 96.09195 105.29 190.69395 158.473 285.95695 6.627 11.846 21.621 16.071 33.467 9.444 4.639-2.568 8.119-6.461 10.19-10.935l83.337-146.292-27.918-49.9513-77.372 135.9373-118.2958-211.6513c-4.6391-8.3667-13.5026-12.9228-22.4493-12.59145h-39.34898z" style="fill-rule:evenodd;clip-rule:evenodd;fill:#3d4543;stroke:#3d4543;stroke-width:1.89;stroke-miterlimit:10"></path><path d="m27.42 442.884-19.8-66h26.04l6.72 26.4 7.92-26.64h21.72l8.04 26.88 6.96-26.64h25.68l-20.04 66h-22.8l-8.76-28.08-9 28.08zm87.519-.48v-87.6h27.24v30.84c4.2-5.4 10.8-10.32 20.04-10.32 13.8 0 22.44 9.12 22.44 23.88v43.2h-27.24v-34.44c0-5.64-3.36-8.88-7.44-8.88s-7.8 3.24-7.8 8.88v34.44zm98.506 19.56c-9.48 0-18-2.76-25.32-6.84l7.92-18.6c4.92 2.76 9.48 4.32 12 4.32 1.56 0 3-.24 4.44-.96l-25.68-63h28.2l11.4 34.56 10.44-34.56h27.72l-22.68 60.96c-6.36 17.16-13.32 24.12-28.44 24.12zm55.362-19.56v-65.52h27.24v9.12c4.2-5.4 10.8-10.68 20.04-10.68 13.8 0 22.44 9.12 22.44 23.88v43.2h-27.24v-34.44c0-5.64-3.36-8.88-7.44-8.88s-7.8 3.24-7.8 8.88v34.44zm103.623 1.56c-15.84 0-28.2-13.8-28.2-33.84v-.24c0-20.76 12.48-34.56 27.96-34.56 9.96 0 15.48 4.32 19.68 9v-29.52h27.24v87.6h-27.24v-8.04c-4.44 4.8-9.48 9.6-19.44 9.6zm9.12-22.44c6.24 0 10.92-5.16 10.92-11.76v-.24c0-6.48-4.68-11.76-10.92-11.76s-10.92 5.16-10.92 11.76v.24c0 6.6 4.68 11.76 10.92 11.76zm64.654 22.44c-12.6 0-21.48-7.2-21.48-20.16v-.24c0-13.08 9.72-20.4 24.96-20.4 5.52 0 12.6 1.2 15.48 2.4v-1.08c0-6-3.72-9.48-12.12-9.48-6.72 0-12.36 1.44-18.12 3.72l-4.8-18.12c7.56-2.88 16.2-4.8 27.6-4.8 13.32 0 21.96 2.76 27.72 8.52 4.92 4.92 6.84 11.28 6.84 20.76v37.32h-27.24v-6.6c-4.56 4.92-10.68 8.16-18.84 8.16zm10.8-15.72c4.8 0 8.4-3.84 8.4-10.08v-2.76c-1.56-.6-3.96-1.08-6.24-1.08-5.4 0-8.4 3.24-8.4 7.32v.24c0 3.84 2.76 6.36 6.24 6.36z" fill="#231f20"></path></svg>